<svg width="90" height="120" viewBox="0 0 90 120" fill="none" xmlns="http://www.w3.org/2000/svg">
<path d="M81.0978 81.914L63.2878 70.0805L70.0024 57.497C71.5676 54.5584 72.3889 51.2662 72.3913 47.9202V28C72.3913 20.5739 69.5054 13.452 64.3686 8.20101C59.2317 2.94999 52.2646 0 45 0C37.7354 0 30.7683 2.94999 25.6314 8.20101C20.4946 13.452 17.6087 20.5739 17.6087 28V47.9202C17.6112 51.2663 18.4324 54.5586 19.9976 57.4972L26.7122 70.0805L8.9022 81.914C6.16504 83.7253 3.91596 86.2094 2.36075 89.1389C0.805544 92.0685 -0.00611754 95.3499 3.47156e-05 98.683V120H90V98.683C90.0061 95.3499 89.1944 92.0685 87.6392 89.1389C86.084 86.2094 83.8349 83.7253 81.0978 81.914ZM82.1739 112H7.82612V98.683C7.82246 96.6831 8.30949 94.7142 9.24266 92.9565C10.1758 91.1987 11.5253 89.7083 13.1677 88.6215L37.0519 72.7517L26.8682 53.6665C25.9291 51.9033 25.4363 49.9279 25.4348 47.9202V28C25.4348 22.6957 27.4961 17.6086 31.1653 13.8579C34.8345 10.1071 39.811 8 45 8C50.189 8 55.1655 10.1071 58.8347 13.8579C62.5039 17.6086 64.5652 22.6957 64.5652 28V47.9202C64.5637 49.9279 64.0709 51.9033 63.1318 53.6665L52.9484 72.7517L76.8331 88.6215C78.4753 89.7084 79.8246 91.1989 80.7577 92.9566C81.6907 94.7143 82.1776 96.6832 82.1739 98.683V112Z" fill="black"/>
</svg>
