<svg width="90" height="120" viewBox="0 0 90 120" fill="none" xmlns="http://www.w3.org/2000/svg">
<path d="M81.0978 81.914L63.2878 70.0805L66.5322 64H72.2619C74.2045 64 76.1168 63.5072 77.8272 62.5658C79.5377 61.6244 80.9928 60.2638 82.0622 58.6059C83.1316 56.9481 83.7818 55.0449 83.9545 53.067C84.1273 51.0891 83.8171 49.0983 83.0519 47.2731L70.8214 18.6426C68.9287 13.1891 65.43 8.46883 60.8062 5.13057C56.1825 1.79232 50.6607 0 45 0C39.3393 0 33.8175 1.79232 29.1938 5.13057C24.5701 8.46883 21.0713 13.1891 19.1786 18.6426L6.94813 47.2731C6.1829 49.0983 5.87274 51.0891 6.04547 53.067C6.2182 55.0449 6.86841 56.9481 7.9378 58.6059C9.0072 60.2638 10.4623 61.6244 12.1728 62.5658C13.8832 63.5072 15.7955 64 17.7381 64H23.4678L26.7122 70.0805L8.9022 81.914C6.16504 83.7253 3.91596 86.2094 2.36075 89.1389C0.805544 92.0685 -0.00611754 95.3499 3.47156e-05 98.683V120H90V98.683C90.0061 95.3499 89.1944 92.0685 87.6392 89.139C86.084 86.2094 83.8349 83.7254 81.0978 81.914ZM82.1739 112H7.82612V98.683C7.82246 96.6831 8.30949 94.7142 9.24266 92.9565C10.1758 91.1987 11.5253 89.7083 13.1677 88.6215L37.0519 72.7518L28.1135 56H17.7381C17.0913 56 16.4546 55.8361 15.8849 55.523C15.3153 55.2099 14.8304 54.7573 14.4738 54.2057C14.1171 53.6541 13.8998 53.0208 13.8412 52.3623C13.7826 51.7039 13.8846 51.0408 14.1381 50.4326L26.4084 21.7076L26.518 21.4218C27.8549 17.5004 30.3524 14.1015 33.6641 11.6963C36.9758 9.29115 40.9376 7.99896 45 7.99896C49.0624 7.99896 53.0242 9.29115 56.3359 11.6963C59.6476 14.1015 62.1451 17.5004 63.482 21.4218L63.5309 21.5668L75.8619 50.4326C76.1154 51.0408 76.2174 51.7039 76.1588 52.3623C76.1002 53.0208 75.8829 53.6541 75.5262 54.2057C75.1696 54.7573 74.6847 55.2099 74.1151 55.523C73.5454 55.8361 72.9087 56 72.2619 56H61.8865L52.9484 72.7518L76.8328 88.6215C78.4751 89.7084 79.8245 91.1988 80.7576 92.9566C81.6906 94.7143 82.1776 96.6832 82.1739 98.683V112Z" fill="black"/>
</svg>
